<svg width="512" height="512" viewBox="0 0 512 512" fill="none" xmlns="http://www.w3.org/2000/svg" xmlns:xlink="http://www.w3.org/1999/xlink"><rect id="_r_8_" width="512" height="512" x="0" y="0" rx="128" fill="url(#_r_9_)" stroke="#FFFFFF" stroke-width="0" stroke-opacity="100%" paint-order="stroke"></rect><clipPath id="clip"><use xlink:href="#_r_8_"></use></clipPath><defs><linearGradient id="_r_9_" gradientUnits="userSpaceOnUse" gradientTransform="rotate(135)" style="transform-origin: center center 0px;"><stop stop-color="#DD1818"></stop><stop offset="1" stop-color="#380202"></stop></linearGradient><radialGradient id="_r_a_" cx="0" cy="0" r="1" gradientUnits="userSpaceOnUse" gradientTransform="translate(256) rotate(90) scale(512)"><stop stop-color="white"></stop><stop offset="1" stop-color="white" stop-opacity="0"></stop></radialGradient></defs><svg xmlns="http://www.w3.org/2000/svg" width="352" height="352" fill="currentColor" viewBox="0 0 256 256" x="80" y="80" style="color: rgb(255, 255, 255);" alignment-baseline="middle"><path d="M96,164a12,12,0,1,1-12-12A12,12,0,0,1,96,164Zm136,12v32a16,16,0,0,1-16,16H180a16.1,16.1,0,0,1-15.35-11.47L153.84,176H131.91l3.56,12a5.44,5.44,0,0,1,.15.54A16,16,0,0,1,120,208H72.14a8,8,0,0,1-4.52-1.4A100,100,0,0,1,24,124c0-54.36,44.24-99.2,98.58-100A100,100,0,0,1,224,124v4a8,8,0,0,1-8,8H158.71l7.09,24H216A16,16,0,0,1,232,176ZM120,192l-15.45-52a4.77,4.77,0,0,1-.15-.54A16,16,0,0,1,120,120h87.91A84,84,0,0,0,122.8,40C77.16,40.64,40,78.31,40,124a84,84,0,0,0,34.67,68Zm29.13-32L142,136H120l7.14,24ZM216,176H170.52L180,208h36Z"></path></svg></svg>